<?xml version="1.0"?>
<svg width="512" height="360" xmlns="http://www.w3.org/2000/svg" xmlns:svg="http://www.w3.org/2000/svg" enable-background="new 0 0 512 512" version="1.1" xml:space="preserve">
 <!-- Created with SVG-edit - https://github.com/SVG-Edit/svgedit-->

 <g class="layer">
  <title>Layer 1</title>
  <g id="svg_1">
   <path d="m24.79,251.14c19.12,-10.17 35.35,-10.83 47.67,1.69c18.37,18.4 42.32,22.49 76.58,0c21.09,-12.03 51.01,-16.35 69.82,0c28.66,22.46 51.04,22.95 80.02,0c22.26,-16.92 47.81,-13.44 68.07,3.4c28.38,18.55 56.75,18.37 85.13,-1.69c6.09,-8.77 21.12,-7.12 40.84,0" fill="none" id="svg_2" stroke="#6C6CAA" stroke-linecap="round" stroke-linejoin="round" stroke-miterlimit="10" stroke-width="20.18"/>
   <path d="m108.21,300.5c40.29,-5.86 76.84,-38.7 114.91,-3.4c20.43,11.51 45.64,12.6 77.44,-0.86c30.44,-14.95 56.96,-17.09 78.31,-2.54c18.92,14.89 46.35,14.06 69.81,1.71" fill="none" id="svg_3" stroke="#6C6CAA" stroke-linecap="round" stroke-linejoin="round" stroke-miterlimit="10" stroke-width="20.18"/>
   <path d="m165.22,325.19c17.46,-7.35 34.06,-8.23 47.67,2.54c24.86,11.98 50.35,16.15 77.47,0.86c20.06,-5.57 37.5,-9.72 61.27,-0.86" fill="none" id="svg_4" stroke="#6C6CAA" stroke-linecap="round" stroke-linejoin="round" stroke-miterlimit="10" stroke-width="20.18"/>
   <path clip-rule="evenodd" d="m348.83,149.32c-20.32,-22.44 -49.67,-36.5 -82.3,-36.5c-58.5,0 -106.43,45.18 -110.77,102.57c-0.23,2.97 -1.54,8.14 1.09,8.14l216.13,-0.31c-5.8,-37.15 -10,-54.93 -24.15,-73.9l0,0z" fill="#F5D8B3" fill-rule="evenodd" id="svg_5"/>
   <line fill="none" id="svg_6" stroke="#6C6CAA" stroke-linecap="round" stroke-linejoin="round" stroke-miterlimit="10" stroke-width="20.18" x1="260.55" x2="260.55" y1="25.57" y2="77.5"/>
   <line fill="none" id="svg_7" stroke="#6C6CAA" stroke-linecap="round" stroke-linejoin="round" stroke-miterlimit="10" stroke-width="20.18" x1="393.35" x2="355.03" y1="83.45" y2="120.91"/>
   <line fill="none" id="svg_8" stroke="#6C6CAA" stroke-linecap="round" stroke-linejoin="round" stroke-miterlimit="10" stroke-width="20.18" x1="325.25" x2="312.48" y1="69.84" y2="87.7"/>
   <line fill="none" id="svg_9" stroke="#6C6CAA" stroke-linecap="round" stroke-linejoin="round" stroke-miterlimit="10" stroke-width="20.18" x1="195.88" x2="207.8" y1="68.98" y2="87.93"/>
   <line fill="none" id="svg_10" stroke="#6C6CAA" stroke-linecap="round" stroke-linejoin="round" stroke-miterlimit="10" stroke-width="20.18" x1="112.46" x2="134.58" y1="154.09" y2="166.87"/>
   <line fill="none" id="svg_11" stroke="#6C6CAA" stroke-linecap="round" stroke-linejoin="round" stroke-miterlimit="10" stroke-width="20.18" x1="70.74" x2="126.92" y1="216.25" y2="216.25"/>
   <line fill="none" id="svg_12" stroke="#6C6CAA" stroke-linecap="round" stroke-linejoin="round" stroke-miterlimit="10" stroke-width="20.18" x1="397.18" x2="414.84" y1="160.49" y2="156.86"/>
   <path clip-rule="evenodd" d="m49.02,117.51l119.17,0c26.38,-52.79 -60.21,-63.45 -68.1,-28.95c-30.38,-19.72 -62.13,-1.57 -51.07,28.95l0,0z" fill="#DCF2FF" fill-rule="evenodd" id="svg_13" stroke="#6C6CAA" stroke-linecap="round" stroke-linejoin="round" stroke-miterlimit="10" stroke-width="20.18"/>
   <path clip-rule="evenodd" d="m295.16,212.76l118.31,0c3.29,-26.55 -13.88,-32.21 -49.35,-28.09c-44.95,-27.44 -75.93,-2.95 -68.96,28.09l0,0z" fill="#DCF2FF" fill-rule="evenodd" id="svg_14" stroke="#6C6CAA" stroke-linecap="round" stroke-linejoin="round" stroke-miterlimit="10" stroke-width="20.18"/>
   <path d="m348.83,149.32c-20.32,-22.44 -49.67,-36.5 -82.3,-36.5c-58.5,0 -106.43,45.18 -110.77,102.57" fill="none" id="svg_15" stroke="#6C6CAA" stroke-linecap="round" stroke-linejoin="round" stroke-miterlimit="10" stroke-width="20.18"/>
  </g>
 </g>
</svg>